<?xml version="1.0" encoding="utf-8"?>
<?xml-stylesheet type="text/xsl" href="rss1.xsl"?>
<rss version="2.0" xmlns:atom="http://www.w3.org/2005/Atom" xmlns:content="http://purl.org/rss/1.0/modules/content/" xmlns:dc="http://purl.org/dc/elements/1.1/" xmlns:media="http://search.yahoo.com/mrss/">
<channel>
 <title>Getty</title>
 <link>http://www.gettyimg.com/</link>
 <atom:link href="http://www.gettyimg.com/" rel="self" type="application/rss+xml" />

 
                <item>
                <title><![CDATA[【MASTER &amp; MASTER RIP】MASTER - Taylor Swift - Look What You Made Me Do (MasterRip 1080p DS4K x264 LPCM)]]></title>
                <link><![CDATA[https://sharemania.us/threads/taylor-swift-look-what-you-made-me-do-masterrip-1080p-ds4k-x264-lpcm.233341/]]></link>
                <description><![CDATA[<article>
<blockquote class="messageText SelectQuoteContainer ugc baseHtml">
<img src="https://images2.imgbox.com/48/7a/hHnOwDPi_o.png" class="bbCodeImage LbImage" alt="[​IMG]" data-url="https://images2.imgbox.com/48/7a/hHnOwDPi_o.png" style=""><br>
<img src="https://images2.imgbox.com/12/35/tsBDGqZJ_o.png" class="bbCodeImage LbImage" alt="[​IMG]" data-url="https://images2.imgbox.com/12/35/tsBDGqZJ_o.png" style=""><br>
<div class="ToggleTriggerAnchor bbCodeSpoilerContainer">
<button type="button" class="button bbCodeSpoilerButton ToggleTrigger Tooltip JsOnly" data-target="> .SpoilerTarget"><span>Spoiler: <span class="SpoilerTitle">MediaInfo</span></span></button>
<div class="SpoilerTarget bbCodeSpoilerText">
<div class="bbCodeBlock bbCodeCode">
<div class="type">Code:</div>
<pre>General
Complete name             : Taylor Swift - Look What You Made Me Do (MasterRip 1080p DS4K x264 LPCM).mkv
Format                    : Matroska
Format version            : Version 4
File size                 : 1.23 GiB
Duration                  : 4 min 16 s
Overall bit rate          : 41.3 Mb/s
Frame rate                : 23.976 FPS
Writing application       : Lavf60.3.100
Writing library           : Lavf60.3.100
ErrorDetectionType        : Per level 1

Video
ID                        : 1
Format                    : AVC
Format/Info               : Advanced Video Codec
Format profile            : High
Format level              : 4.1
Format settings, CABAC    : Yes
Format settings, Referenc : 4 frames
Codec ID                  : V_MPEG4/ISO/AVC
Duration                  : 4 min 16 s
Bit rate                  : 40.0 Mb/s
Width                     : 1 920 pixels
Height                    : 1 080 pixels
Display aspect ratio      : 16:9
Frame rate mode           : Constant
Frame rate                : 23.976 (24000/1001) FPS
Color space               : YUV
Chroma subsampling        : 4:2:0
Bit depth                 : 8 bits
Scan type                 : Progressive
Bits/(Pixel*Frame)        : 0.805
Stream size               : 1.14 GiB (92%)
Writing library           : x264 core 158 r2984 3759fcb
Encoding settings         : cabac=1 / ref=4 / deblock=1:0:0 / analyse=0x3:0x113 / me=hex / subme=8 / psy=1 / psy_rd=1.00:0.00 / mixed_ref=1 / me_range=16 / chroma_me=1 / trellis=2 / 8x8dct=1 / cqm=0 / deadzone=21,11 / fast_pskip=1 / chroma_qp_offset=-2 / threads=12 / lookahead_threads=2 / sliced_threads=0 / nr=0 / decimate=1 / interlaced=0 / bluray_compat=0 / constrained_intra=0 / bframes=3 / b_pyramid=2 / b_adapt=1 / b_bias=0 / direct=3 / weightb=1 / open_gop=0 / weightp=2 / keyint=250 / keyint_min=23 / scenecut=40 / intra_refresh=0 / rc_lookahead=50 / rc=abr / mbtree=1 / bitrate=40000 / ratetol=1.0 / qcomp=0.60 / qpmin=0 / qpmax=69 / qpstep=4 / ip_ratio=1.40 / aq=1:1.00
Language                  : English
Default                   : Yes
Forced                    : No
Color range               : Limited
Color primaries           : BT.709
Transfer characteristics  : BT.709
Matrix coefficients       : BT.709
VENDOR_ID                 : appl

Audio
ID                        : 2
Format                    : PCM
Format settings           : Little
Codec ID                  : A_PCM/INT/LIT
Duration                  : 4 min 16 s
Bit rate mode             : Constant
Bit rate                  : 2 304 kb/s
Channel(s)                : 2 channels
Sampling rate             : 48.0 kHz
Bit depth                 : 24 bits
Stream size               : 70.5 MiB (6%)
Language                  : English
Default                   : Yes
Forced                    : No</pre>
</div></div>
</div><div style="text-align: center">
<div class="bbCodeBlock bbCodeVfcHH HiddenContent">
<div class="attribution type">Hidden Content:</div>
<blockquote>You must reply before you can see the hidden data contained here.</blockquote>
</div></div>
<div class="messageTextEndMarker">&nbsp;</div>
</blockquote>
</article>]]></description>
                <author><![CDATA[Cauã]]></author>
                </item>

                
                <item>
                <title><![CDATA[【Albums (lossy)】M4A - Nelly Furtado - AOL Sessions - EP - 2004]]></title>
                <link><![CDATA[https://sharemania.us/threads/nelly-furtado-aol-sessions-ep-2004.233340/]]></link>
                <description><![CDATA[<article>
<blockquote class="messageText SelectQuoteContainer ugc baseHtml">
Yes! Keep on rocking!
<div class="messageTextEndMarker">&nbsp;</div>
</blockquote>
</article>]]></description>
                <author><![CDATA[JrAleixo]]></author>
                </item>

                </channel></rss>